<svg xmlns="http://www.w3.org/2000/svg" viewBox="0 0 24 24" fill="currentColor">
  <path fill="#374151" d="M18.33 8.52a2.44 2.44 0 0 0-2.2-2.82 2.44 2.44 0 0 0-2.2 2.82 2.5 2.5 0 0 0 2.2 2.18 2.5 2.5 0 0 0 2.2-2.18Z"/>
  <path fill="#374151" d="M10.07 8.52a2.44 2.44 0 0 0-2.2-2.82 2.44 2.44 0 0 0-2.2 2.82 2.5 2.5 0 0 0 2.2 2.18 2.5 2.5 0 0 0 2.2-2.18Z"/>
  <path fill="#374151" d="M11.53 4.54a2.72 2.72 0 0 0-2.43 3 2.73 2.73 0 0 0 5.46 0 2.72 2.72 0 0 0-2.43-3Z"/>
  <path fill="#E5E7EB" d="m19.5 12.3-1.62-3.21a2.82 2.82 0 0 0-5.18-.3l-1.38-2.73a2.73 2.73 0 0 0-4.94 0L5 8.79a2.82 2.82 0 0 0-2.59 2.8v.53a2.18 2.18 0 0 0 2.18 2.18h15.82a2.18 2.18 0 0 0 2.18-2.18v-.53a2.82 2.82 0 0 0-3.09-2.79Z"/>
  <path fill="#F9FAFB" d="M4 15.5h16a1 1 0 0 1 1 1v2a1 1 0 0 1-1 1H4a1 1 0 0 1-1-1v-2a1 1 0 0 1 1-1Z"/>
</svg>